<svg width="96" height="22" viewBox="0 0 96 22" fill="none" xmlns="http://www.w3.org/2000/svg">
<path d="M16.8516 19.4436L18.4 19.787C18.6065 19.8442 18.7097 20.0159 18.7097 20.302V21.5325H12.4645V20.302C12.4645 19.9968 12.6021 19.8156 12.8774 19.7583L14.3226 19.4436V12.2038H4.36129V19.4436C5.6 19.7297 6.21935 20.0159 6.21935 20.302V21.5325H0V20.302C0 19.9968 0.129032 19.8156 0.387097 19.7583L1.85806 19.4436V3.10411L0.309677 2.76073C0.103226 2.7035 0 2.5318 0 2.24565V1.0438H6.21935V2.24565C6.21935 2.5318 6.13333 2.7035 5.96129 2.76073C5.77204 2.81796 5.24731 2.93242 4.3871 3.10411V10.1721H14.3484V3.10411L12.8 2.76073C12.5935 2.7035 12.4903 2.5318 12.4903 2.24565V1.0438H18.7355V2.24565C18.7355 2.55088 18.6065 2.73211 18.3484 2.78934L16.8516 3.10411V19.4436Z" fill="#222B45"/>
<path d="M26.593 6.82413C27.5392 6.82413 28.3995 6.99582 29.1737 7.33921C29.9306 7.6826 30.593 8.1786 31.1608 8.82722C31.6941 9.43768 32.107 10.2198 32.3995 11.1737C32.6919 12.1085 32.8382 13.1386 32.8382 14.2642C32.8382 15.3897 32.6919 16.4199 32.3995 17.3546C32.107 18.3085 31.6941 19.0906 31.1608 19.7011C30.593 20.3497 29.9306 20.8457 29.1737 21.1891C28.3995 21.5325 27.5392 21.7042 26.593 21.7042C25.6468 21.7042 24.7866 21.5325 24.0124 21.1891C23.2554 20.8457 22.593 20.3497 22.0253 19.7011C21.5091 19.1097 21.0876 18.3276 20.7608 17.3546C20.4855 16.5343 20.3478 15.5042 20.3478 14.2642C20.3478 13.0242 20.4855 11.994 20.7608 11.1737C21.0876 10.2008 21.5091 9.4186 22.0253 8.82722C22.593 8.1786 23.2554 7.6826 24.0124 7.33921C24.7866 6.99582 25.6468 6.82413 26.593 6.82413ZM26.593 19.7583C27.9177 19.7583 28.8812 19.2814 29.4833 18.3276C30.1199 17.3356 30.4382 15.9906 30.4382 14.2928C30.4382 12.5949 30.1199 11.25 29.4833 10.258C28.8812 9.30414 27.9177 8.82722 26.593 8.82722C25.922 8.82722 25.3543 8.94168 24.8898 9.1706C24.4425 9.39953 24.0468 9.76199 23.7027 10.258C23.3758 10.754 23.1349 11.3263 22.9801 11.9749C22.8081 12.738 22.722 13.5202 22.722 14.3214C22.722 15.0845 22.8081 15.8476 22.9801 16.6106C23.1349 17.2593 23.3758 17.8316 23.7027 18.3276C23.9952 18.7663 24.3909 19.1097 24.8898 19.3577C25.4403 19.6248 26.0081 19.7583 26.593 19.7583Z" fill="#222B45"/>
<path d="M39.283 21.7614C38.2851 21.7614 37.4937 21.4371 36.9088 20.7885C36.3583 20.178 36.083 19.2623 36.083 18.0414V9.1706H34.5088C34.354 9.1706 34.2335 9.13245 34.1475 9.05614C34.0615 8.97983 34.0185 8.83675 34.0185 8.62691V7.62536L36.1604 7.31059L36.6765 2.81796C36.6765 2.66534 36.7282 2.55088 36.8314 2.47457C36.9174 2.39827 37.0378 2.36011 37.1927 2.36011H38.354V7.33921H42.0959V9.19922H38.354V17.8983C38.354 18.5279 38.483 18.9857 38.7411 19.2719C38.9991 19.558 39.3518 19.7011 39.7991 19.7011C39.9884 19.7011 40.2034 19.663 40.4443 19.5866C40.5991 19.5294 40.754 19.4531 40.9088 19.3577C40.9604 19.3196 41.012 19.2814 41.0636 19.2433C41.1152 19.2051 41.1669 19.167 41.2185 19.1288C41.3561 19.0525 41.4421 19.0143 41.4765 19.0143C41.597 19.0143 41.7002 19.0906 41.7862 19.2433L42.4572 20.4451C41.9927 20.8839 41.511 21.2082 41.012 21.418C40.4443 21.647 39.8679 21.7614 39.283 21.7614Z" fill="#222B45"/>
<path d="M49.9591 6.82413C50.7161 6.82413 51.43 6.96721 52.101 7.25336C52.7892 7.53952 53.3569 7.94967 53.8042 8.48383C54.3204 9.09429 54.6989 9.77153 54.9397 10.5155C55.215 11.374 55.3526 12.2897 55.3526 13.2626C55.3526 13.7014 55.3182 13.9685 55.2494 14.0639C55.1634 14.1974 55.0085 14.2642 54.7849 14.2642H46.1139C46.1139 15.1799 46.2171 15.9811 46.4236 16.6679C46.5956 17.2593 46.8881 17.8125 47.301 18.3276C47.6795 18.8045 48.1096 19.1479 48.5913 19.3577C49.1075 19.5866 49.658 19.7011 50.2429 19.7011C50.8623 19.7011 51.3612 19.6343 51.7397 19.5008C52.101 19.3673 52.4623 19.2051 52.8236 19.0143C53.2021 18.8045 53.4601 18.6519 53.5978 18.5565C53.8214 18.4039 53.9935 18.3276 54.1139 18.3276C54.3032 18.3276 54.4494 18.4134 54.5526 18.5851L55.1978 19.5294C54.9569 19.8728 54.6128 20.1971 54.1655 20.5023C53.6494 20.8648 53.2279 21.1033 52.901 21.2177C52.3849 21.4085 51.9204 21.542 51.5075 21.6183C50.9913 21.7137 50.5182 21.7614 50.0881 21.7614C49.1935 21.7614 48.3591 21.5897 47.5849 21.2463C46.8451 20.922 46.1827 20.4165 45.5978 19.7297C45.0472 19.1002 44.6171 18.2894 44.3075 17.2974C43.9978 16.3245 43.8429 15.218 43.8429 13.978C43.8429 12.986 43.9892 12.0512 44.2817 11.1737C44.5741 10.2771 44.9784 9.51399 45.4946 8.88445C46.0279 8.23583 46.673 7.73029 47.43 7.36782C48.187 7.00536 49.03 6.82413 49.9591 6.82413ZM50.0107 8.68414C48.8924 8.68414 48.0236 9.03706 47.4042 9.74291C46.7677 10.4869 46.372 11.4789 46.2171 12.7189H53.3139C53.3139 12.1275 53.2365 11.5934 53.0816 11.1165C52.8924 10.5251 52.686 10.0958 52.4623 9.82876C52.1698 9.48537 51.8171 9.20876 51.4042 8.99891C51.0085 8.80814 50.5354 8.71275 49.9849 8.71275L50.0107 8.68414Z" fill="#222B45"/>
<path d="M62.7489 19.7583C63.0241 19.8156 63.1618 19.9968 63.1618 20.302V21.5325H57.1231V20.302C57.1231 19.9968 57.2607 19.8156 57.5359 19.7583L58.9811 19.4436V2.5318C58.1897 2.36011 57.708 2.24565 57.5359 2.18842C57.2607 2.13119 57.1231 1.95949 57.1231 1.67334V0.442871H61.3037V19.415C62.0951 19.5866 62.5768 19.7011 62.7489 19.7583Z" fill="#222B45"/>
<path d="M66.7348 3.76227C66.5972 3.60965 66.4767 3.41888 66.3735 3.18996C66.2875 2.99919 66.2445 2.77027 66.2445 2.50319C66.2445 2.21703 66.2875 1.97857 66.3735 1.7878C66.4939 1.52072 66.6144 1.32041 66.7348 1.18687C66.8724 1.03426 67.0445 0.90072 67.2509 0.786258C67.423 0.690873 67.6294 0.64318 67.8703 0.64318C68.1112 0.64318 68.3176 0.690873 68.4896 0.786258C68.6961 0.90072 68.8681 1.03426 69.0058 1.18687C69.1262 1.32041 69.2466 1.52072 69.3671 1.7878C69.4703 2.01672 69.5219 2.25519 69.5219 2.50319C69.5219 2.73211 69.4703 2.96104 69.3671 3.18996C69.2638 3.41888 69.1434 3.60965 69.0058 3.76227C68.8681 3.91489 68.6961 4.04843 68.4896 4.16289C68.3176 4.25827 68.1112 4.30596 67.8703 4.30596C67.6294 4.30596 67.423 4.25827 67.2509 4.16289C67.0445 4.04843 66.8724 3.91489 66.7348 3.76227ZM70.4767 19.7583C70.5972 19.7774 70.6918 19.8442 70.7606 19.9587C70.8294 20.054 70.8638 20.1685 70.8638 20.302V21.5325H64.8509V20.302C64.8509 20.1685 64.8853 20.054 64.9542 19.9587C65.023 19.8442 65.1176 19.7774 65.238 19.7583L66.7348 19.4436V9.11337L65.238 8.7986C65.1176 8.77952 65.023 8.72229 64.9542 8.62691C64.8853 8.51244 64.8509 8.38844 64.8509 8.25491V7.05305H69.0058V19.4436L70.4767 19.7583Z" fill="#222B45"/>
<path d="M78.4117 6.82413C79.1687 6.82413 79.8827 6.96721 80.5536 7.25336C81.2418 7.53952 81.8095 7.94967 82.2569 8.48383C82.773 9.09429 83.1515 9.77153 83.3923 10.5155C83.6676 11.374 83.8052 12.2897 83.8052 13.2626C83.8052 13.7014 83.7708 13.9685 83.702 14.0639C83.616 14.1974 83.4612 14.2642 83.2375 14.2642H74.5665C74.5665 15.1799 74.6698 15.9811 74.8762 16.6679C75.0482 17.2593 75.3407 17.8125 75.7536 18.3276C76.1321 18.8045 76.5622 19.1479 77.044 19.3577C77.5601 19.5866 78.1106 19.7011 78.6956 19.7011C79.3149 19.7011 79.8138 19.6343 80.1923 19.5008C80.5536 19.3673 80.9149 19.2051 81.2762 19.0143C81.6547 18.8045 81.9128 18.6519 82.0504 18.5565C82.2741 18.4039 82.4461 18.3276 82.5665 18.3276C82.7558 18.3276 82.902 18.4134 83.0052 18.5851L83.6504 19.5294C83.4095 19.8728 83.0655 20.1971 82.6181 20.5023C82.102 20.8648 81.6805 21.1033 81.3536 21.2177C80.8375 21.4085 80.373 21.542 79.9601 21.6183C79.4439 21.7137 78.9708 21.7614 78.5407 21.7614C77.6461 21.7614 76.8117 21.5897 76.0375 21.2463C75.2977 20.922 74.6353 20.4165 74.0504 19.7297C73.4999 19.1002 73.0698 18.2894 72.7601 17.2974C72.4504 16.3245 72.2956 15.218 72.2956 13.978C72.2956 12.986 72.4418 12.0512 72.7343 11.1737C73.0267 10.2771 73.431 9.51399 73.9472 8.88445C74.4805 8.23583 75.1257 7.73029 75.8827 7.36782C76.6396 7.00536 77.4827 6.82413 78.4117 6.82413ZM78.4633 8.68414C77.345 8.68414 76.4762 9.03706 75.8568 9.74291C75.2203 10.4869 74.8246 11.4789 74.6698 12.7189H81.7665C81.7665 12.1275 81.6891 11.5934 81.5343 11.1165C81.345 10.5251 81.1386 10.0958 80.9149 9.82876C80.6224 9.48537 80.2698 9.20876 79.8568 8.99891C79.4612 8.80814 78.988 8.71275 78.4375 8.71275L78.4633 8.68414Z" fill="#222B45"/>
<path d="M89.6789 10.0005C90.6423 7.84475 91.9671 6.7669 93.6531 6.7669C94.3241 6.7669 94.9176 6.93859 95.4337 7.28198L95.1499 9.19922C95.0982 9.44722 94.9864 9.57122 94.8144 9.57122C94.6939 9.57122 94.4875 9.52353 94.195 9.42814C93.9025 9.33276 93.5499 9.28506 93.137 9.28506C91.623 9.28506 90.5047 10.2961 89.7821 12.3183V19.4722L91.2531 19.787C91.5111 19.8442 91.6402 20.0254 91.6402 20.3307V21.5325H85.6273V20.3307C85.6273 20.0254 85.7563 19.8442 86.0144 19.787L87.4853 19.4722V9.14199C86.6595 8.97029 86.1692 8.85583 86.0144 8.7986C85.7563 8.74137 85.6273 8.56014 85.6273 8.25491V7.05305H88.8015C89.0423 7.05305 89.2058 7.10075 89.2918 7.19613C89.3778 7.29152 89.4466 7.47275 89.4982 7.73983L89.6531 10.0005H89.6789Z" fill="#222B45"/>
</svg>
