<svg width="20" height="20" viewBox="0 0 20 20" fill="none" xmlns="http://www.w3.org/2000/svg">
<path d="M15.8327 4.1665H4.16602C3.50297 4.1665 2.86709 4.4299 2.39825 4.89874C1.92941 5.36758 1.66602 6.00346 1.66602 6.6665V13.3332C1.66602 13.9962 1.92941 14.6321 2.39825 15.1009C2.86709 15.5698 3.50297 15.8332 4.16602 15.8332H15.8327C16.4957 15.8332 17.1316 15.5698 17.6005 15.1009C18.0693 14.6321 18.3327 13.9962 18.3327 13.3332V6.6665C18.3327 6.00346 18.0693 5.36758 17.6005 4.89874C17.1316 4.4299 16.4957 4.1665 15.8327 4.1665ZM3.33268 6.6665C3.33268 6.44549 3.42048 6.23353 3.57676 6.07725C3.73304 5.92097 3.945 5.83317 4.16602 5.83317H15.8327C16.0537 5.83317 16.2657 5.92097 16.4219 6.07725C16.5782 6.23353 16.666 6.44549 16.666 6.6665V7.49984H3.33268V6.6665ZM16.666 13.3332C16.666 13.5542 16.5782 13.7661 16.4219 13.9224C16.2657 14.0787 16.0537 14.1665 15.8327 14.1665H4.16602C3.945 14.1665 3.73304 14.0787 3.57676 13.9224C3.42048 13.7661 3.33268 13.5542 3.33268 13.3332V9.1665H16.666V13.3332Z" fill="#8F9BB3"/>
<path d="M5.83333 12.5002H9.16667C9.38768 12.5002 9.59964 12.4124 9.75592 12.2561C9.9122 12.0998 10 11.8878 10 11.6668C10 11.4458 9.9122 11.2339 9.75592 11.0776C9.59964 10.9213 9.38768 10.8335 9.16667 10.8335H5.83333C5.61232 10.8335 5.40036 10.9213 5.24408 11.0776C5.0878 11.2339 5 11.4458 5 11.6668C5 11.8878 5.0878 12.0998 5.24408 12.2561C5.40036 12.4124 5.61232 12.5002 5.83333 12.5002Z" fill="#8F9BB3"/>
<path d="M12.4993 12.5002H14.166C14.387 12.5002 14.599 12.4124 14.7553 12.2561C14.9116 12.0998 14.9993 11.8878 14.9993 11.6668C14.9993 11.4458 14.9116 11.2339 14.7553 11.0776C14.599 10.9213 14.387 10.8335 14.166 10.8335H12.4993C12.2783 10.8335 12.0664 10.9213 11.9101 11.0776C11.7538 11.2339 11.666 11.4458 11.666 11.6668C11.666 11.8878 11.7538 12.0998 11.9101 12.2561C12.0664 12.4124 12.2783 12.5002 12.4993 12.5002Z" fill="#8F9BB3"/>
</svg>
