<svg width="20" height="20" viewBox="0 0 20 20" fill="none" xmlns="http://www.w3.org/2000/svg">
<path d="M12.4993 13.3335H7.49935C7.27834 13.3335 7.06637 13.4213 6.91009 13.5776C6.75381 13.7339 6.66602 13.9458 6.66602 14.1668C6.66602 14.3878 6.75381 14.5998 6.91009 14.7561C7.06637 14.9124 7.27834 15.0002 7.49935 15.0002H12.4993C12.7204 15.0002 12.9323 14.9124 13.0886 14.7561C13.2449 14.5998 13.3327 14.3878 13.3327 14.1668C13.3327 13.9458 13.2449 13.7339 13.0886 13.5776C12.9323 13.4213 12.7204 13.3335 12.4993 13.3335Z" fill="#8F9BB3"/>
<path d="M7.49935 11.6667H9.99935C10.2204 11.6667 10.4323 11.5789 10.5886 11.4226C10.7449 11.2663 10.8327 11.0543 10.8327 10.8333C10.8327 10.6123 10.7449 10.4004 10.5886 10.2441C10.4323 10.0878 10.2204 10 9.99935 10H7.49935C7.27834 10 7.06637 10.0878 6.91009 10.2441C6.75381 10.4004 6.66602 10.6123 6.66602 10.8333C6.66602 11.0543 6.75381 11.2663 6.91009 11.4226C7.06637 11.5789 7.27834 11.6667 7.49935 11.6667Z" fill="#8F9BB3"/>
<path d="M16.4506 6.94165L11.9173 1.94165C11.8394 1.85533 11.7443 1.78626 11.6381 1.7389C11.5319 1.69154 11.4169 1.66693 11.3007 1.66665H5.46732C5.19044 1.66335 4.91563 1.71462 4.65857 1.81753C4.40151 1.92045 4.16724 2.07299 3.96914 2.26645C3.77103 2.45991 3.61298 2.6905 3.504 2.94504C3.39502 3.19959 3.33725 3.47311 3.33398 3.74999V16.25C3.33725 16.5269 3.39502 16.8004 3.504 17.0549C3.61298 17.3095 3.77103 17.5401 3.96914 17.7335C4.16724 17.927 4.40151 18.0795 4.65857 18.1824C4.91563 18.2854 5.19044 18.3366 5.46732 18.3333H14.534C14.8109 18.3366 15.0857 18.2854 15.3427 18.1824C15.5998 18.0795 15.8341 17.927 16.0322 17.7335C16.2303 17.5401 16.3883 17.3095 16.4973 17.0549C16.6063 16.8004 16.6641 16.5269 16.6673 16.25V7.49999C16.6668 7.29346 16.5896 7.09449 16.4506 6.94165ZM11.6673 4.16665L13.9507 6.66665H12.284C12.1967 6.66139 12.1114 6.63879 12.0329 6.60018C11.9545 6.56157 11.8845 6.50773 11.8271 6.44179C11.7697 6.37585 11.726 6.29914 11.6986 6.21613C11.6711 6.13312 11.6605 6.04548 11.6673 5.95832V4.16665ZM14.534 16.6667H5.46732C5.4093 16.67 5.35118 16.6619 5.2963 16.6428C5.24141 16.6237 5.19085 16.5939 5.14749 16.5552C5.10414 16.5165 5.06885 16.4696 5.04365 16.4172C5.01846 16.3649 5.00384 16.308 5.00065 16.25V3.74999C5.00384 3.69196 5.01846 3.63512 5.04365 3.58275C5.06885 3.53038 5.10414 3.48349 5.14749 3.44479C5.19085 3.40608 5.24141 3.37631 5.2963 3.35718C5.35118 3.33805 5.4093 3.32994 5.46732 3.33332H10.0007V5.95832C9.9872 6.57217 10.2171 7.16643 10.6402 7.61138C11.0633 8.05633 11.6452 8.31586 12.259 8.33332H15.0007V16.25C14.9975 16.308 14.9828 16.3649 14.9576 16.4172C14.9324 16.4696 14.8972 16.5165 14.8538 16.5552C14.8105 16.5939 14.7599 16.6237 14.705 16.6428C14.6501 16.6619 14.592 16.67 14.534 16.6667Z" fill="#8F9BB3"/>
</svg>
