<svg width="20" height="20" viewBox="0 0 20 20" fill="none" xmlns="http://www.w3.org/2000/svg">
<path d="M15 4.1665V3.33317C15 2.89114 14.8244 2.46722 14.5118 2.15466C14.1993 1.8421 13.7754 1.6665 13.3333 1.6665H6.66667C6.22464 1.6665 5.80072 1.8421 5.48816 2.15466C5.17559 2.46722 5 2.89114 5 3.33317V4.1665C4.33696 4.1665 3.70107 4.4299 3.23223 4.89874C2.76339 5.36758 2.5 6.00346 2.5 6.6665V15.8332C2.5 16.4962 2.76339 17.1321 3.23223 17.6009C3.70107 18.0698 4.33696 18.3332 5 18.3332H15C15.663 18.3332 16.2989 18.0698 16.7678 17.6009C17.2366 17.1321 17.5 16.4962 17.5 15.8332V6.6665C17.5 6.00346 17.2366 5.36758 16.7678 4.89874C16.2989 4.4299 15.663 4.1665 15 4.1665ZM6.66667 3.33317H13.3333V6.6665H6.66667V3.33317ZM15.8333 15.8332C15.8333 16.0542 15.7455 16.2661 15.5893 16.4224C15.433 16.5787 15.221 16.6665 15 16.6665H5C4.77899 16.6665 4.56702 16.5787 4.41074 16.4224C4.25446 16.2661 4.16667 16.0542 4.16667 15.8332V6.6665C4.16667 6.44549 4.25446 6.23353 4.41074 6.07725C4.56702 5.92097 4.77899 5.83317 5 5.83317V6.6665C5 7.10853 5.17559 7.53245 5.48816 7.84502C5.80072 8.15758 6.22464 8.33317 6.66667 8.33317H13.3333C13.7754 8.33317 14.1993 8.15758 14.5118 7.84502C14.8244 7.53245 15 7.10853 15 6.6665V5.83317C15.221 5.83317 15.433 5.92097 15.5893 6.07725C15.7455 6.23353 15.8333 6.44549 15.8333 6.6665V15.8332Z" fill="#8F9BB3"/>
</svg>
