<svg width="20" height="20" viewBox="0 0 20 20" fill="none" xmlns="http://www.w3.org/2000/svg">
<path d="M4.16602 1.6665C3.67156 1.6665 3.18821 1.81313 2.77709 2.08783C2.36597 2.36253 2.04554 2.75298 1.85632 3.2098C1.6671 3.66661 1.61759 4.16928 1.71405 4.65423C1.81052 5.13918 2.04862 5.58464 2.39825 5.93427C2.74788 6.2839 3.19334 6.522 3.67829 6.61847C4.16324 6.71493 4.66591 6.66542 5.12273 6.4762C5.57954 6.28698 5.96999 5.96655 6.24469 5.55543C6.51939 5.14431 6.66602 4.66096 6.66602 4.1665C6.66602 3.50346 6.40262 2.86758 5.93378 2.39874C5.46494 1.9299 4.82906 1.6665 4.16602 1.6665ZM4.16602 4.99984C4.0012 4.99984 3.84008 4.95096 3.70304 4.8594C3.566 4.76783 3.45919 4.63768 3.39612 4.48541C3.33304 4.33313 3.31654 4.16558 3.3487 4.00393C3.38085 3.84228 3.46022 3.69379 3.57676 3.57725C3.69331 3.4607 3.84179 3.38134 4.00344 3.34918C4.16509 3.31703 4.33265 3.33353 4.48492 3.3966C4.63719 3.45968 4.76734 3.56649 4.85891 3.70353C4.95048 3.84057 4.99935 4.00169 4.99935 4.1665C4.99935 4.38752 4.91155 4.59948 4.75527 4.75576C4.59899 4.91204 4.38703 4.99984 4.16602 4.99984Z" fill="#8F9BB3"/>
<path d="M10 1.6665C9.50555 1.6665 9.0222 1.81313 8.61108 2.08783C8.19995 2.36253 7.87952 2.75298 7.6903 3.2098C7.50108 3.66661 7.45157 4.16928 7.54804 4.65423C7.6445 5.13918 7.8826 5.58464 8.23223 5.93427C8.58187 6.2839 9.02732 6.522 9.51228 6.61847C9.99723 6.71493 10.4999 6.66542 10.9567 6.4762C11.4135 6.28698 11.804 5.96655 12.0787 5.55543C12.3534 5.14431 12.5 4.66096 12.5 4.1665C12.5 3.50346 12.2366 2.86758 11.7678 2.39874C11.2989 1.9299 10.663 1.6665 10 1.6665ZM10 4.99984C9.83518 4.99984 9.67407 4.95096 9.53703 4.8594C9.39998 4.76783 9.29317 4.63768 9.2301 4.48541C9.16703 4.33313 9.15053 4.16558 9.18268 4.00393C9.21483 3.84228 9.2942 3.69379 9.41075 3.57725C9.52729 3.4607 9.67577 3.38134 9.83743 3.34918C9.99908 3.31703 10.1666 3.33353 10.3189 3.3966C10.4712 3.45968 10.6013 3.56649 10.6929 3.70353C10.7845 3.84057 10.8333 4.00169 10.8333 4.1665C10.8333 4.38752 10.7455 4.59948 10.5893 4.75576C10.433 4.91204 10.221 4.99984 10 4.99984Z" fill="#8F9BB3"/>
<path d="M15.834 6.6665C16.3284 6.6665 16.8118 6.51988 17.2229 6.24518C17.634 5.97048 17.9545 5.58003 18.1437 5.12321C18.3329 4.6664 18.3824 4.16373 18.2859 3.67878C18.1895 3.19383 17.9514 2.74837 17.6018 2.39874C17.2521 2.04911 16.8067 1.811 16.3217 1.71454C15.8368 1.61808 15.3341 1.66759 14.8773 1.85681C14.4205 2.04603 14.03 2.36646 13.7553 2.77758C13.4806 3.1887 13.334 3.67205 13.334 4.16651C13.334 4.82955 13.5974 5.46543 14.0662 5.93427C14.5351 6.40311 15.1709 6.6665 15.834 6.6665ZM15.834 3.33317C15.9988 3.33317 16.1599 3.38205 16.297 3.47361C16.434 3.56518 16.5408 3.69533 16.6039 3.8476C16.667 3.99987 16.6835 4.16743 16.6513 4.32908C16.6192 4.49073 16.5398 4.63922 16.4232 4.75576C16.3067 4.8723 16.1582 4.95167 15.9966 4.98383C15.8349 5.01598 15.6674 4.99948 15.5151 4.9364C15.3628 4.87333 15.2327 4.76652 15.1411 4.62948C15.0495 4.49244 15.0007 4.33132 15.0007 4.16651C15.0007 3.94549 15.0884 3.73353 15.2447 3.57725C15.401 3.42097 15.613 3.33317 15.834 3.33317Z" fill="#8F9BB3"/>
<path d="M4.16602 7.5C3.67156 7.5 3.18821 7.64662 2.77709 7.92133C2.36597 8.19603 2.04554 8.58648 1.85632 9.04329C1.6671 9.50011 1.61759 10.0028 1.71405 10.4877C1.81052 10.9727 2.04862 11.4181 2.39825 11.7678C2.74788 12.1174 3.19334 12.3555 3.67829 12.452C4.16324 12.5484 4.66591 12.4989 5.12273 12.3097C5.57954 12.1205 5.96999 11.8 6.24469 11.3889C6.51939 10.9778 6.66602 10.4945 6.66602 10C6.66602 9.33696 6.40262 8.70107 5.93378 8.23223C5.46494 7.76339 4.82906 7.5 4.16602 7.5ZM4.16602 10.8333C4.0012 10.8333 3.84008 10.7845 3.70304 10.6929C3.566 10.6013 3.45919 10.4712 3.39612 10.3189C3.33304 10.1666 3.31654 9.99907 3.3487 9.83742C3.38085 9.67577 3.46022 9.52729 3.57676 9.41074C3.69331 9.2942 3.84179 9.21483 4.00344 9.18268C4.16509 9.15052 4.33265 9.16703 4.48492 9.2301C4.63719 9.29317 4.76734 9.39998 4.85891 9.53702C4.95048 9.67406 4.99935 9.83518 4.99935 10C4.99935 10.221 4.91155 10.433 4.75527 10.5893C4.59899 10.7455 4.38703 10.8333 4.16602 10.8333Z" fill="#8F9BB3"/>
<path d="M10 7.5C9.50555 7.5 9.0222 7.64662 8.61108 7.92133C8.19995 8.19603 7.87952 8.58648 7.6903 9.04329C7.50108 9.50011 7.45157 10.0028 7.54804 10.4877C7.6445 10.9727 7.8826 11.4181 8.23223 11.7678C8.58187 12.1174 9.02732 12.3555 9.51228 12.452C9.99723 12.5484 10.4999 12.4989 10.9567 12.3097C11.4135 12.1205 11.804 11.8 12.0787 11.3889C12.3534 10.9778 12.5 10.4945 12.5 10C12.5 9.33696 12.2366 8.70107 11.7678 8.23223C11.2989 7.76339 10.663 7.5 10 7.5ZM10 10.8333C9.83518 10.8333 9.67407 10.7845 9.53703 10.6929C9.39998 10.6013 9.29317 10.4712 9.2301 10.3189C9.16703 10.1666 9.15053 9.99907 9.18268 9.83742C9.21483 9.67577 9.2942 9.52729 9.41075 9.41074C9.52729 9.2942 9.67577 9.21483 9.83743 9.18268C9.99908 9.15052 10.1666 9.16703 10.3189 9.2301C10.4712 9.29317 10.6013 9.39998 10.6929 9.53702C10.7845 9.67406 10.8333 9.83518 10.8333 10C10.8333 10.221 10.7455 10.433 10.5893 10.5893C10.433 10.7455 10.221 10.8333 10 10.8333Z" fill="#8F9BB3"/>
<path d="M15.834 7.5C15.3395 7.5 14.8562 7.64662 14.4451 7.92133C14.0339 8.19603 13.7135 8.58648 13.5243 9.04329C13.3351 9.50011 13.2856 10.0028 13.382 10.4877C13.4785 10.9727 13.7166 11.4181 14.0662 11.7678C14.4158 12.1174 14.8613 12.3555 15.3463 12.452C15.8312 12.5484 16.3339 12.4989 16.7907 12.3097C17.2475 12.1205 17.638 11.8 17.9127 11.3889C18.1874 10.9778 18.334 10.4945 18.334 10C18.334 9.33696 18.0706 8.70107 17.6018 8.23223C17.1329 7.76339 16.497 7.5 15.834 7.5ZM15.834 10.8333C15.6692 10.8333 15.5081 10.7845 15.371 10.6929C15.234 10.6013 15.1272 10.4712 15.0641 10.3189C15.001 10.1666 14.9845 9.99907 15.0167 9.83742C15.0488 9.67577 15.1282 9.52729 15.2447 9.41074C15.3613 9.2942 15.5098 9.21483 15.6714 9.18268C15.8331 9.15052 16.0006 9.16703 16.1529 9.2301C16.3052 9.29317 16.4353 9.39998 16.5269 9.53702C16.6184 9.67406 16.6673 9.83518 16.6673 10C16.6673 10.221 16.5795 10.433 16.4232 10.5893C16.267 10.7455 16.055 10.8333 15.834 10.8333Z" fill="#8F9BB3"/>
<path d="M4.16602 13.3335C3.67156 13.3335 3.18821 13.4801 2.77709 13.7548C2.36597 14.0295 2.04554 14.42 1.85632 14.8768C1.6671 15.3336 1.61759 15.8363 1.71405 16.3212C1.81052 16.8062 2.04862 17.2516 2.39825 17.6013C2.74788 17.9509 3.19334 18.189 3.67829 18.2855C4.16324 18.3819 4.66591 18.3324 5.12273 18.1432C5.57954 17.954 5.96999 17.6335 6.24469 17.2224C6.51939 16.8113 6.66602 16.3279 6.66602 15.8335C6.66602 15.1705 6.40262 14.5346 5.93378 14.0657C5.46494 13.5969 4.82906 13.3335 4.16602 13.3335ZM4.16602 16.6668C4.0012 16.6668 3.84008 16.618 3.70304 16.5264C3.566 16.4348 3.45919 16.3047 3.39612 16.1524C3.33304 16.0001 3.31654 15.8326 3.3487 15.6709C3.38085 15.5093 3.46022 15.3608 3.57676 15.2442C3.69331 15.1277 3.84179 15.0483 4.00344 15.0162C4.16509 14.984 4.33265 15.0005 4.48492 15.0636C4.63719 15.1267 4.76734 15.2335 4.85891 15.3705C4.95048 15.5076 4.99935 15.6687 4.99935 15.8335C4.99935 16.0545 4.91155 16.2665 4.75527 16.4228C4.59899 16.579 4.38703 16.6668 4.16602 16.6668Z" fill="#8F9BB3"/>
<path d="M10 13.3335C9.50555 13.3335 9.0222 13.4801 8.61108 13.7548C8.19995 14.0295 7.87952 14.42 7.6903 14.8768C7.50108 15.3336 7.45157 15.8363 7.54804 16.3212C7.6445 16.8062 7.8826 17.2516 8.23223 17.6013C8.58187 17.9509 9.02732 18.189 9.51228 18.2855C9.99723 18.3819 10.4999 18.3324 10.9567 18.1432C11.4135 17.954 11.804 17.6335 12.0787 17.2224C12.3534 16.8113 12.5 16.3279 12.5 15.8335C12.5 15.1705 12.2366 14.5346 11.7678 14.0657C11.2989 13.5969 10.663 13.3335 10 13.3335ZM10 16.6668C9.83518 16.6668 9.67407 16.618 9.53703 16.5264C9.39998 16.4348 9.29317 16.3047 9.2301 16.1524C9.16703 16.0001 9.15053 15.8326 9.18268 15.6709C9.21483 15.5093 9.2942 15.3608 9.41075 15.2442C9.52729 15.1277 9.67577 15.0483 9.83743 15.0162C9.99908 14.984 10.1666 15.0005 10.3189 15.0636C10.4712 15.1267 10.6013 15.2335 10.6929 15.3705C10.7845 15.5076 10.8333 15.6687 10.8333 15.8335C10.8333 16.0545 10.7455 16.2665 10.5893 16.4228C10.433 16.579 10.221 16.6668 10 16.6668Z" fill="#8F9BB3"/>
<path d="M15.834 13.3335C15.3395 13.3335 14.8562 13.4801 14.4451 13.7548C14.0339 14.0295 13.7135 14.42 13.5243 14.8768C13.3351 15.3336 13.2856 15.8363 13.382 16.3212C13.4785 16.8062 13.7166 17.2516 14.0662 17.6013C14.4158 17.9509 14.8613 18.189 15.3463 18.2855C15.8312 18.3819 16.3339 18.3324 16.7907 18.1432C17.2475 17.954 17.638 17.6335 17.9127 17.2224C18.1874 16.8113 18.334 16.3279 18.334 15.8335C18.334 15.1705 18.0706 14.5346 17.6018 14.0657C17.1329 13.5969 16.497 13.3335 15.834 13.3335ZM15.834 16.6668C15.6692 16.6668 15.5081 16.618 15.371 16.5264C15.234 16.4348 15.1272 16.3047 15.0641 16.1524C15.001 16.0001 14.9845 15.8326 15.0167 15.6709C15.0488 15.5093 15.1282 15.3608 15.2447 15.2442C15.3613 15.1277 15.5098 15.0483 15.6714 15.0162C15.8331 14.984 16.0006 15.0005 16.1529 15.0636C16.3052 15.1267 16.4353 15.2335 16.5269 15.3705C16.6184 15.5076 16.6673 15.6687 16.6673 15.8335C16.6673 16.0545 16.5795 16.2665 16.4232 16.4228C16.267 16.579 16.055 16.6668 15.834 16.6668Z" fill="#8F9BB3"/>
</svg>
