<svg width="20" height="20" viewBox="0 0 20 20" fill="none" xmlns="http://www.w3.org/2000/svg">
<path d="M3.33333 10.8332C3.79357 10.8332 4.16667 10.4601 4.16667 9.99984C4.16667 9.5396 3.79357 9.1665 3.33333 9.1665C2.8731 9.1665 2.5 9.5396 2.5 9.99984C2.5 10.4601 2.8731 10.8332 3.33333 10.8332Z" fill="#8F9BB3"/>
<path d="M16.7173 9.1665H6.61732C6.18469 9.1665 5.83398 9.51721 5.83398 9.94984V10.0498C5.83398 10.4825 6.18469 10.8332 6.61732 10.8332H16.7173C17.1499 10.8332 17.5007 10.4825 17.5007 10.0498V9.94984C17.5007 9.51721 17.1499 9.1665 16.7173 9.1665Z" fill="#8F9BB3"/>
<path d="M16.7167 13.3335H3.28333C2.85071 13.3335 2.5 13.6842 2.5 14.1168V14.2168C2.5 14.6495 2.85071 15.0002 3.28333 15.0002H16.7167C17.1493 15.0002 17.5 14.6495 17.5 14.2168V14.1168C17.5 13.6842 17.1493 13.3335 16.7167 13.3335Z" fill="#8F9BB3"/>
<path d="M16.7167 5H3.28333C2.85071 5 2.5 5.35071 2.5 5.78333V5.88333C2.5 6.31596 2.85071 6.66667 3.28333 6.66667H16.7167C17.1493 6.66667 17.5 6.31596 17.5 5.88333V5.78333C17.5 5.35071 17.1493 5 16.7167 5Z" fill="#8F9BB3"/>
</svg>
