<svg width="20" height="20" viewBox="0 0 20 20" fill="none" xmlns="http://www.w3.org/2000/svg">
<path d="M9.99935 10.0002C10.4596 10.0002 10.8327 9.62707 10.8327 9.16683C10.8327 8.70659 10.4596 8.3335 9.99935 8.3335C9.53911 8.3335 9.16602 8.70659 9.16602 9.16683C9.16602 9.62707 9.53911 10.0002 9.99935 10.0002Z" fill="#8F9BB3"/>
<path d="M13.3333 10.0002C13.7936 10.0002 14.1667 9.62707 14.1667 9.16683C14.1667 8.70659 13.7936 8.3335 13.3333 8.3335C12.8731 8.3335 12.5 8.70659 12.5 9.16683C12.5 9.62707 12.8731 10.0002 13.3333 10.0002Z" fill="#8F9BB3"/>
<path d="M6.66732 10.0002C7.12756 10.0002 7.50065 9.62707 7.50065 9.16683C7.50065 8.70659 7.12756 8.3335 6.66732 8.3335C6.20708 8.3335 5.83398 8.70659 5.83398 9.16683C5.83398 9.62707 6.20708 10.0002 6.66732 10.0002Z" fill="#8F9BB3"/>
<path d="M15.8327 2.5H4.16602C3.50297 2.5 2.86709 2.76339 2.39825 3.23223C1.92941 3.70107 1.66602 4.33696 1.66602 5V17.5C1.66627 17.6477 1.70576 17.7926 1.78043 17.92C1.85511 18.0474 1.96229 18.1526 2.09102 18.225C2.21556 18.2956 2.35619 18.3329 2.49935 18.3333C2.64892 18.3333 2.79572 18.293 2.92435 18.2167L6.66602 15.95C6.80432 15.8677 6.96351 15.8271 7.12435 15.8333H15.8327C16.4957 15.8333 17.1316 15.5699 17.6005 15.1011C18.0693 14.6323 18.3327 13.9964 18.3327 13.3333V5C18.3327 4.33696 18.0693 3.70107 17.6005 3.23223C17.1316 2.76339 16.4957 2.5 15.8327 2.5ZM16.666 13.3333C16.666 13.5543 16.5782 13.7663 16.4219 13.9226C16.2657 14.0789 16.0537 14.1667 15.8327 14.1667H7.12435C6.6692 14.1663 6.22259 14.2902 5.83268 14.525L3.33268 16.025V5C3.33268 4.77899 3.42048 4.56702 3.57676 4.41074C3.73304 4.25446 3.945 4.16667 4.16602 4.16667H15.8327C16.0537 4.16667 16.2657 4.25446 16.4219 4.41074C16.5782 4.56702 16.666 4.77899 16.666 5V13.3333Z" fill="#8F9BB3"/>
</svg>
