<svg width="20" height="20" viewBox="0 0 20 20" fill="none" xmlns="http://www.w3.org/2000/svg">
<path d="M7.17588 18.3332C6.76924 18.3308 6.37439 18.1962 6.05088 17.9498L4.32588 16.6665C3.92781 16.3561 3.66368 15.9051 3.58774 15.4061C3.5118 14.9071 3.62982 14.3979 3.91755 13.9832C4.06979 13.7584 4.16654 13.5007 4.19986 13.2312C4.23318 12.9618 4.20211 12.6883 4.10922 12.4332L4.05922 12.2998C3.99453 12.0689 3.87631 11.8565 3.71414 11.6799C3.55197 11.5032 3.35043 11.3673 3.12588 11.2832H2.99255C2.50578 11.1195 2.10322 10.7704 1.87231 10.3117C1.64139 9.85296 1.60075 9.32167 1.75922 8.83317L2.44255 6.6665C2.50545 6.41547 2.62126 6.18078 2.78223 5.97813C2.94319 5.77549 3.1456 5.60958 3.37588 5.4915C3.59034 5.38101 3.82499 5.31517 4.06563 5.29798C4.30627 5.28079 4.5479 5.31261 4.77588 5.3915C5.02412 5.47505 5.289 5.4967 5.54751 5.45459C5.80602 5.41247 6.05034 5.30786 6.25922 5.14984L6.36755 5.0665C6.55663 4.91563 6.70944 4.72425 6.81473 4.50647C6.92001 4.28869 6.97508 4.05006 6.97588 3.80817V3.60817C6.97364 3.09828 7.17293 2.60815 7.53034 2.24449C7.88776 1.88083 8.37436 1.67309 8.88422 1.6665H11.0092C11.2573 1.66717 11.5028 1.71684 11.7316 1.81266C11.9604 1.90847 12.168 2.04855 12.3426 2.22484C12.7095 2.598 12.9133 3.10152 12.9092 3.62484V3.85817C12.905 4.08796 12.9548 4.31553 13.0547 4.52253C13.1546 4.72952 13.3017 4.91015 13.4842 5.04984L13.5759 5.1165C13.7629 5.25676 13.9811 5.34971 14.2118 5.38743C14.4425 5.42516 14.6789 5.40654 14.9009 5.33317L15.1842 5.2415C15.4243 5.16193 15.6779 5.13152 15.93 5.15208C16.182 5.17265 16.4274 5.24377 16.6513 5.3612C16.8753 5.47864 17.0733 5.63998 17.2336 5.83561C17.3939 6.03123 17.5131 6.25713 17.5842 6.49984L18.2426 8.59984C18.3949 9.08516 18.3532 9.61063 18.1264 10.0659C17.8995 10.5212 17.5051 10.8709 17.0259 11.0415L16.8592 11.0998C16.6141 11.1801 16.3924 11.3194 16.2137 11.5053C16.035 11.6913 15.9047 11.9184 15.8342 12.1665C15.7679 12.3972 15.7522 12.6395 15.7881 12.8768C15.8241 13.1141 15.9109 13.3408 16.0426 13.5415L16.2592 13.8582C16.5466 14.2752 16.6635 14.7864 16.586 15.2868C16.5085 15.7873 16.2425 16.2392 15.8426 16.5498L14.1676 17.8415C13.9652 17.9963 13.7333 18.108 13.4861 18.1697C13.239 18.2315 12.9818 18.242 12.7304 18.2006C12.4791 18.1593 12.2388 18.0669 12.0245 17.9291C11.8102 17.7914 11.6263 17.6113 11.4842 17.3998L11.3842 17.2582C11.2477 17.0531 11.0615 16.8859 10.8429 16.7722C10.6243 16.6585 10.3805 16.6021 10.1342 16.6082C9.8992 16.6143 9.6689 16.6755 9.4619 16.787C9.2549 16.8984 9.077 17.057 8.94255 17.2498L8.75088 17.5248C8.60875 17.7378 8.42452 17.9193 8.20954 18.0584C7.99456 18.1974 7.75339 18.2909 7.50088 18.3332C7.39281 18.3438 7.28396 18.3438 7.17588 18.3332ZM3.66755 9.68317C4.13813 9.85097 4.56274 10.1269 4.90722 10.4887C5.25169 10.8506 5.50642 11.2882 5.65088 11.7665V11.8665C5.83083 12.3637 5.88991 12.8966 5.82326 13.4211C5.75661 13.9456 5.56613 14.4468 5.26755 14.8832C5.21485 14.9414 5.18566 15.0171 5.18566 15.0957C5.18566 15.1742 5.21485 15.2499 5.26755 15.3082L7.05922 16.6665C7.08259 16.6849 7.10963 16.698 7.1385 16.7051C7.16738 16.7121 7.19743 16.7129 7.22663 16.7074C7.25584 16.7018 7.28352 16.6901 7.30783 16.673C7.33214 16.6559 7.3525 16.6338 7.36755 16.6082L7.55922 16.3332C7.84829 15.9155 8.23434 15.5741 8.68427 15.3383C9.13419 15.1025 9.63458 14.9794 10.1426 14.9794C10.6505 14.9794 11.1509 15.1025 11.6008 15.3383C12.0508 15.5741 12.4368 15.9155 12.7259 16.3332L12.8259 16.4832C12.8617 16.534 12.9152 16.5697 12.9759 16.5832C13.0037 16.5873 13.0321 16.5857 13.0593 16.5785C13.0865 16.5714 13.112 16.5588 13.1342 16.5415L14.8509 15.2415C14.911 15.1938 14.9505 15.1249 14.9614 15.049C14.9722 14.973 14.9536 14.8958 14.9092 14.8332L14.6926 14.5165C14.4102 14.1048 14.224 13.635 14.1475 13.1417C14.0711 12.6485 14.1064 12.1443 14.2509 11.6665C14.3973 11.1643 14.6622 10.7046 15.0233 10.3261C15.3844 9.94765 15.8311 9.66141 16.3259 9.4915L16.4926 9.43317C16.562 9.40535 16.6176 9.35117 16.6473 9.28248C16.677 9.21378 16.6783 9.13614 16.6509 9.0665L16.0009 6.9915C15.9853 6.9552 15.9625 6.92244 15.9338 6.89522C15.9052 6.86801 15.8713 6.8469 15.8342 6.83317C15.8097 6.82073 15.7826 6.81424 15.7551 6.81424C15.7275 6.81424 15.7004 6.82073 15.6759 6.83317L15.3926 6.92484C14.9133 7.08302 14.4027 7.12244 13.9048 7.0397C13.4069 6.95696 12.9366 6.75454 12.5342 6.44984L12.5009 6.37484C12.1148 6.08244 11.8017 5.70451 11.5863 5.27074C11.3708 4.83697 11.2589 4.35916 11.2592 3.87484V3.6165C11.2607 3.53618 11.2308 3.45845 11.1759 3.39984C11.1279 3.35651 11.0655 3.33272 11.0009 3.33317H8.88422C8.85027 3.33529 8.81707 3.34409 8.78653 3.35907C8.756 3.37406 8.72872 3.39492 8.70626 3.42047C8.68381 3.44602 8.66662 3.47576 8.65569 3.50797C8.64475 3.54018 8.64029 3.57423 8.64255 3.60817V3.8165C8.6426 4.31404 8.52842 4.80494 8.30882 5.25138C8.08921 5.69782 7.77003 6.08788 7.37588 6.3915L7.26755 6.47484C6.84233 6.79859 6.34399 7.01278 5.81646 7.09852C5.28894 7.18426 4.74842 7.13892 4.24255 6.9665C4.2047 6.9538 4.16374 6.9538 4.12588 6.9665C4.07885 6.99508 4.04343 7.03935 4.02588 7.0915L3.33422 9.2665C3.31011 9.34058 3.31576 9.42113 3.34997 9.49112C3.38419 9.5611 3.44428 9.61503 3.51755 9.6415L3.66755 9.68317Z" fill="#8F9BB3"/>
<path d="M10.0007 12.9168C9.42379 12.9168 8.85988 12.7458 8.38024 12.4253C7.9006 12.1048 7.52676 11.6493 7.306 11.1163C7.08525 10.5834 7.02749 9.99693 7.14003 9.43115C7.25257 8.86537 7.53035 8.34567 7.93826 7.93777C8.34616 7.52987 8.86586 7.25208 9.43164 7.13954C9.99742 7.027 10.5839 7.08476 11.1168 7.30552C11.6498 7.52627 12.1053 7.90011 12.4258 8.37975C12.7463 8.85939 12.9173 9.4233 12.9173 10.0002C12.9173 10.7737 12.61 11.5156 12.063 12.0626C11.5161 12.6095 10.7742 12.9168 10.0007 12.9168ZM10.0007 8.75016C9.75343 8.75016 9.51175 8.82348 9.30619 8.96083C9.10063 9.09818 8.94041 9.2934 8.8458 9.52181C8.75119 9.75022 8.72644 10.0016 8.77467 10.244C8.8229 10.4865 8.94195 10.7092 9.11677 10.884C9.29158 11.0589 9.51431 11.1779 9.75679 11.2261C9.99927 11.2744 10.2506 11.2496 10.479 11.155C10.7074 11.0604 10.9026 10.9002 11.04 10.6946C11.1773 10.4891 11.2507 10.2474 11.2507 10.0002C11.2507 9.66864 11.119 9.3507 10.8845 9.11628C10.6501 8.88186 10.3322 8.75016 10.0007 8.75016Z" fill="#8F9BB3"/>
</svg>
